<?xml version="1.0" encoding="UTF-8" standalone="no" ?>
<!DOCTYPE svg PUBLIC "-//W3C//DTD SVG 1.1//EN" "http://www.w3.org/Graphics/SVG/1.1/DTD/svg11.dtd">
<svg xmlns="http://www.w3.org/2000/svg" xmlns:xlink="http://www.w3.org/1999/xlink" version="1.1" width="390" height="390" viewBox="0 0 390 390" xml:space="preserve">
<desc>Created with Fabric.js 4.6.0</desc>
<defs>
</defs>
<g transform="matrix(3.74 0 0 3.74 61.69 331.54)" id="kaIIklNRhxFRTR_9TDy76"  >
<path style="stroke: none; stroke-width: 1; stroke-dasharray: none; stroke-linecap: square; stroke-dashoffset: 0; stroke-linejoin: bevel; stroke-miterlimit: 4; fill: rgb(248,181,0); fill-rule: nonzero; opacity: 1;"  transform=" translate(-14.45, -85.8)" d="M 22.7 74.1 L 6.2 74.1 C 4.3 74.1 2.7 75.6 2.7 77.6 L 2.7 94 C 2.7 95.9 4.2 97.5 6.2 97.5 L 22.7 97.5 C 24.6 97.5 26.2 96 26.2 94 L 26.2 77.6 C 26.1 75.7 24.6 74.1 22.7 74.1" stroke-linecap="round" />
</g>
<g transform="matrix(3.74 0 0 3.74 61.69 214.75)" id="92yWT0tiANvEjXUlkm8Ke"  >
<path style="stroke: none; stroke-width: 1; stroke-dasharray: none; stroke-linecap: square; stroke-dashoffset: 0; stroke-linejoin: bevel; stroke-miterlimit: 4; fill: rgb(248,181,0); fill-rule: nonzero; opacity: 1;"  transform=" translate(-14.45, -54.65)" d="M 22.7 42.9 L 6.2 42.9 C 4.3 42.9 2.7 44.4 2.7 46.4 L 2.7 62.9 C 2.7 64.8 4.2 66.4 6.2 66.4 L 22.7 66.4 C 24.6 66.4 26.2 64.9 26.2 62.9 L 26.2 46.4 C 26.1 44.5 24.6 42.9 22.7 42.9" stroke-linecap="round" />
</g>
<g transform="matrix(3.74 0 0 3.74 61.69 96.81)" id="WwrQEnfD7nRLYW-OZSJrE"  >
<path style="stroke: none; stroke-width: 1; stroke-dasharray: none; stroke-linecap: square; stroke-dashoffset: 0; stroke-linejoin: bevel; stroke-miterlimit: 4; fill: rgb(254,209,54); fill-rule: nonzero; opacity: 1;"  transform=" translate(-14.45, -23.2)" d="M 22.7 11.2 L 6.2 11.2 C 4.3 11.2 2.7 12.7 2.7 14.7 L 2.7 31.7 C 2.7 33.6 4.2 35.2 6.2 35.2 L 22.7 35.2 C 24.6 35.2 26.2 33.7 26.2 31.7 L 26.2 14.7 C 26.1 12.8 24.6 11.2 22.7 11.2" stroke-linecap="round" />
</g>
<g transform="matrix(3.74 0 0 3.74 178.7 214.75)" id="i6RPgm99-zyIyyMdwZYcF"  >
<path style="stroke: none; stroke-width: 1; stroke-dasharray: none; stroke-linecap: square; stroke-dashoffset: 0; stroke-linejoin: bevel; stroke-miterlimit: 4; fill: rgb(248,181,0); fill-rule: nonzero; opacity: 1;"  transform=" translate(-45.65, -54.65)" d="M 53.9 42.9 L 37.4 42.9 C 35.5 42.9 33.9 44.4 33.9 46.4 L 33.9 62.9 C 33.9 64.8 35.4 66.4 37.4 66.4 L 53.9 66.4 C 55.8 66.4 57.4 64.9 57.4 62.9 L 57.4 46.4 C 57.3 44.5 55.8 42.9 53.9 42.9" stroke-linecap="round" />
</g>
<g transform="matrix(3.74 0 0 3.74 328.31 64.22)" id="II8AlKYsepchpOSIzMqUg"  >
<path style="stroke: none; stroke-width: 1; stroke-dasharray: none; stroke-linecap: square; stroke-dashoffset: 0; stroke-linejoin: bevel; stroke-miterlimit: 4; fill: rgb(254,209,54); fill-rule: nonzero; opacity: 1;"  transform=" translate(-85.55, -14.5)" d="M 93.8 2.5 L 77.3 2.5 C 75.4 2.5 73.8 4 73.8 6 L 73.8 23 C 73.8 24.9 75.3 26.5 77.3 26.5 L 93.8 26.5 C 95.7 26.5 97.3 25 97.3 23 L 97.3 6 C 97.3 4 95.7 2.5 93.8 2.5" stroke-linecap="round" />
</g>
<g transform="matrix(3.74 0 0 3.74 295.67 331.54)" id="qibzrexBMP6y9bkp2lmVT"  >
<path style="stroke: none; stroke-width: 1; stroke-dasharray: none; stroke-linecap: square; stroke-dashoffset: 0; stroke-linejoin: bevel; stroke-miterlimit: 4; fill: rgb(248,181,0); fill-rule: nonzero; opacity: 1;"  transform=" translate(-76.85, -85.8)" d="M 85.1 74.1 L 68.6 74.1 C 66.7 74.1 65.1 75.6 65.1 77.6 L 65.1 94 C 65.1 95.9 66.6 97.5 68.6 97.5 L 85.1 97.5 C 87 97.5 88.6 96 88.6 94 L 88.6 77.6 C 88.5 75.7 87 74.1 85.1 74.1" stroke-linecap="round" />
</g>
<g transform="matrix(3.74 0 0 3.74 295.67 214.75)" id="yrIYKilLb_52BpxrfWxn4"  >
<path style="stroke: none; stroke-width: 1; stroke-dasharray: none; stroke-linecap: square; stroke-dashoffset: 0; stroke-linejoin: bevel; stroke-miterlimit: 4; fill: rgb(254,209,54); fill-rule: nonzero; opacity: 1;"  transform=" translate(-76.85, -54.65)" d="M 85.1 42.9 L 68.6 42.9 C 66.7 42.9 65.1 44.4 65.1 46.4 L 65.1 62.9 C 65.1 64.8 66.6 66.4 68.6 66.4 L 85.1 66.4 C 87 66.4 88.6 64.9 88.6 62.9 L 88.6 46.4 C 88.5 44.5 87 42.9 85.1 42.9" stroke-linecap="round" />
</g>
<g transform="matrix(3.74 0 0 3.74 178.7 331.54)" id="DwBCurgd7koAvS5sdf_aN"  >
<path style="stroke: none; stroke-width: 1; stroke-dasharray: none; stroke-linecap: square; stroke-dashoffset: 0; stroke-linejoin: bevel; stroke-miterlimit: 4; fill: rgb(254,209,54); fill-rule: nonzero; opacity: 1;"  transform=" translate(-45.65, -85.8)" d="M 53.9 74.1 L 37.4 74.1 C 35.5 74.1 33.9 75.6 33.9 77.6 L 33.9 94 C 33.9 95.9 35.4 97.5 37.4 97.5 L 53.9 97.5 C 55.8 97.5 57.4 96 57.4 94 L 57.4 77.6 C 57.3 75.7 55.8 74.1 53.9 74.1" stroke-linecap="round" />
</g>
<g transform="matrix(3.74 0 0 3.74 178.7 96.81)" id="nj03okYho_7vSVIcCQdB3"  >
<path style="stroke: none; stroke-width: 1; stroke-dasharray: none; stroke-linecap: square; stroke-dashoffset: 0; stroke-linejoin: bevel; stroke-miterlimit: 4; fill: rgb(248,181,0); fill-rule: nonzero; opacity: 1;"  transform=" translate(-45.65, -23.2)" d="M 53.9 11.2 L 37.4 11.2 C 35.5 11.2 33.9 12.7 33.9 14.7 L 33.9 31.7 C 33.9 33.6 35.4 35.2 37.4 35.2 L 53.9 35.2 C 55.8 35.2 57.4 33.7 57.4 31.7 L 57.4 14.7 C 57.3 12.8 55.8 11.2 53.9 11.2" stroke-linecap="round" />
</g>
</svg>